# xmcd
# 
# Track frame offsets:
#     150
#     26092
#     39262
#     64422
#     81195
#     109030
#     133995
#     146877
#     173255
#     191085
# 
# Disc length: 2759
# 
# Revision: 0
# Processed by: cddbd v1.5.2PL0 Copyright (c) Steve Scherf et al.
# Submitted via: fre:ac v1.0.17
# 
DISCID=8c0ac50a
DTITLE=Arco Iris - Tiempo de Resurrección
DYEAR=1994
DGENRE=Blues
TTITLE0=Negro y blanco
TTITLE1=Vasudeva
TTITLE2=Hombre de madera
TTITLE3=Nuestro amanecer
TTITLE4=Blues de Dana
TTITLE5=Tiempo de resurrección
TTITLE6=Mañana campestre
TTITLE7=Garza celeste
TTITLE8=Ígnea, aérea y marina
TTITLE9=Busca la estrella elegida
EXTD=
EXTT0=
EXTT1=
EXTT2=
EXTT3=
EXTT4=
EXTT5=
EXTT6=
EXTT7=
EXTT8=
EXTT9=
PLAYORDER=
